<svg width="16" height="20" viewBox="0 0 16 20" fill="none" xmlns="http://www.w3.org/2000/svg">
<path d="M13.2202 0C14.216 0 15.0512 0.813008 15.0834 1.85366V18.1138C15.0834 19.1545 14.2481 20 13.2202 20H2.77988C1.75191 20 0.916687 19.1545 0.916687 18.1138V1.85366C0.916687 0.813008 1.75191 0 2.74775 0H13.2202ZM13.188 1.10569H2.74775C2.33014 1.10569 2.0089 1.46341 2.0089 1.85366V18.1138C2.0089 18.5366 2.36227 18.8618 2.74775 18.8618H13.188C13.6057 18.8618 13.9269 18.5041 13.9269 18.1138V1.85366C13.9269 1.43089 13.5735 1.10569 13.188 1.10569ZM11.4855 8.68293C12.0637 8.68293 12.5777 9.17073 12.5777 9.78862C12.5777 10.4065 12.0958 10.8943 11.4855 10.8943C10.8751 10.8943 10.3933 10.4065 10.3933 9.78862C10.3933 9.17073 10.8751 8.68293 11.4855 8.68293Z" fill="#45525B"/>
</svg>
